<svg xmlns="http://www.w3.org/2000/svg" width="28" height="32" fill="none" viewBox="0 0 28 32">
  <path fill="#E0E0EA" d="M6 0C4.9 0 4 .9 4 2v28c0 1.1.9 2 2 2h20c1.1 0 2-.9 2-2V8l-8-8H6Z"/>
  <path fill="#B3B8CA" d="M22 8h6l-8-8v6c0 1.1.9 2 2 2Z"/>
  <path fill="#ED5B60" d="M24 25c0 .55-.45 1-1 1H1c-.55 0-1-.45-1-1V15c0-.55.45-1 1-1h22c.55 0 1 .45 1 1v10Z"/>
  <path fill="#fff" d="M6.568 21.432c1.752 0 2.664-.68 2.664-2.065 0-1.264-.697-1.967-2.664-1.967H4.664V23h1.28v-1.568h.624Zm.225-2.832c.799 0 1.12.248 1.12.777 0 .584-.378.855-1.184.855h-.786V18.6h.85Zm3.463-1.2V23h1.969c1.928 0 3.207-.92 3.207-2.912 0-1.72-1.008-2.688-3.28-2.688h-1.896Zm1.28 4.4v-3.2h.712c1.352 0 1.848.544 1.848 1.584 0 .976-.56 1.617-1.832 1.617h-.729Zm8.624-2.04h-2.52V18.6h2.648v-1.2H16.36V23h1.28v-2.04h2.52v-1.2Z"/>
</svg>
