<svg width="6" height="9" viewBox="0 0 6 9" fill="none" xmlns="http://www.w3.org/2000/svg">
<path id="Vector" d="M3 0C2.20435 0 1.44129 0.31607 0.878679 0.878679C0.31607 1.44129 0 2.20435 0 3V6C0 6.79565 0.31607 7.55871 0.878679 8.12132C1.44129 8.68393 2.20435 9 3 9C3.79565 9 4.55871 8.68393 5.12132 8.12132C5.68393 7.55871 6 6.79565 6 6V3C6 2.20435 5.68393 1.44129 5.12132 0.878679C4.55871 0.31607 3.79565 0 3 0ZM4 6C4 6.26522 3.89464 6.51957 3.70711 6.70711C3.51957 6.89464 3.26522 7 3 7C2.73478 7 2.48043 6.89464 2.29289 6.70711C2.10536 6.51957 2 6.26522 2 6V3C2 2.73478 2.10536 2.48043 2.29289 2.29289C2.48043 2.10536 2.73478 2 3 2C3.26522 2 3.51957 2.10536 3.70711 2.29289C3.89464 2.48043 4 2.73478 4 3V6Z" fill="white"/>
</svg>