<svg width="16" height="16" viewBox="0 0 16 16" fill="none" xmlns="http://www.w3.org/2000/svg">
<g id="fi-rr-checkbox" clip-path="url(#clip0_30_7367)">
<path id="Vector" d="M12.6667 0H3.33333C2.4496 0.00105857 1.60237 0.352588 0.97748 0.97748C0.352588 1.60237 0.00105857 2.4496 0 3.33333L0 12.6667C0.00105857 13.5504 0.352588 14.3976 0.97748 15.0225C1.60237 15.6474 2.4496 15.9989 3.33333 16H12.6667C13.5504 15.9989 14.3976 15.6474 15.0225 15.0225C15.6474 14.3976 15.9989 13.5504 16 12.6667V3.33333C15.9989 2.4496 15.6474 1.60237 15.0225 0.97748C14.3976 0.352588 13.5504 0.00105857 12.6667 0V0ZM14.6667 12.6667C14.6667 13.1971 14.456 13.7058 14.0809 14.0809C13.7058 14.456 13.1971 14.6667 12.6667 14.6667H3.33333C2.8029 14.6667 2.29419 14.456 1.91912 14.0809C1.54405 13.7058 1.33333 13.1971 1.33333 12.6667V3.33333C1.33333 2.8029 1.54405 2.29419 1.91912 1.91912C2.29419 1.54405 2.8029 1.33333 3.33333 1.33333H12.6667C13.1971 1.33333 13.7058 1.54405 14.0809 1.91912C14.456 2.29419 14.6667 2.8029 14.6667 3.33333V12.6667Z" fill="#21BA72"/>
<path id="Vector_2" d="M6.22184 10.6127L3.60917 8.00003C3.48415 7.87505 3.31461 7.80484 3.13784 7.80484C2.96106 7.80484 2.79152 7.87505 2.6665 8.00003C2.54152 8.12505 2.47131 8.29459 2.47131 8.47136C2.47131 8.64814 2.54152 8.81768 2.6665 8.9427L5.27917 11.5554C5.40299 11.6792 5.55 11.7775 5.7118 11.8445C5.87361 11.9116 6.04703 11.9461 6.22217 11.9461C6.39731 11.9461 6.57074 11.9116 6.73254 11.8445C6.89434 11.7775 7.04135 11.6792 7.16517 11.5554L13.3332 5.38737C13.4582 5.26235 13.5284 5.09281 13.5284 4.91604C13.5284 4.73926 13.4582 4.56972 13.3332 4.4447C13.2082 4.31972 13.0386 4.24951 12.8618 4.24951C12.6851 4.24951 12.5155 4.31972 12.3905 4.4447L6.22184 10.6127Z" fill="#21BA72"/>
</g>
<defs>
<clipPath id="clip0_30_7367">
<rect width="16" height="16" fill="white"/>
</clipPath>
</defs>
</svg>
